<svg xmlns="http://www.w3.org/2000/svg" width="48" height="48" viewBox="0 0 48 48"><path fill="#DD2C00" d="M35.932,24.203C37.223,22.701,38,20.768,38,18.654C38,13.872,34.021,10,29.107,10c-3.614,0-6.717,1.986-8.107,5c-1.393-3.014-4.493-5-8.107-5C7.979,10,4,13.872,4,18.654c0,2.23,0.874,4.258,2.297,5.793l-0.006,0.002l0.057,0.05C13.809,32.973,21,38,21,38s7.52-4.964,14.908-13.773l0.025-0.021L35.932,24.203z"/><path fill="#AA280E" d="M34.585,25.761c-1.324,0.05-2.954-0.474-5.187-1.905c0.006-2.229-1.306-4.359-3.529-5.338c-3.027-1.326-6.569-0.018-7.95,2.916c-1.03,2.19-0.246,4.186-0.246,4.186l0.021,0.045c1.599,5.326,3.726,9.492,4.735,11.319C24.749,35.268,29.587,31.416,34.585,25.761z"/><path fill="#FF6E40" d="M40.604,34.486c1.224-0.574,2.256-1.553,2.859-2.853c1.371-2.94,0.027-6.397-2.998-7.729c-2.225-0.979-4.736-0.526-6.453,0.951c0.006-2.229-1.305-4.359-3.529-5.338c-3.026-1.326-6.568-0.018-7.949,2.916c-1.031,2.19-0.246,4.186-0.246,4.186l0.021,0.045C24.477,33.893,27.627,39,27.627,39s5.889-1.088,12.957-4.504L40.604,34.486L40.604,34.486z"/></svg>